<?xml version="1.0" encoding="utf-8"?>
<svg xmlns="http://www.w3.org/2000/svg" viewBox="-0.0017 62.781 512.0034 386.438" width="512.003px" height="386.438px" preserveAspectRatio="none"><defs><style type="text/css">

	.st0{fill:#4B4B4B;}

</style></defs><g id="object-0"><path class="st0" d="M 511.031 187.125 C 504.062 111.375 438.297 62.781 373.672 62.781 C 309.031 62.781 256 89.608 256 154.233 C 256 89.608 202.969 62.781 138.344 62.781 C 73.703 62.781 7.938 111.375 0.969 187.125 C 0.313 194.328 0 201.234 0 207.844 C -0.625 360.172 169.156 362.735 247.047 443.391 C 250.188 446.641 249.656 446.36 249.656 446.36 C 251.265 448.173 253.562 449.219 256 449.219 C 258.438 449.219 260.75 448.172 262.359 446.344 C 262.359 446.344 261.812 446.641 264.968 443.391 C 342.844 362.719 512.625 360.172 512 207.844 C 512 201.234 511.688 194.328 511.031 187.125 Z" style="fill: rgb(255, 231, 238);"/></g></svg>